<svg width="59" height="59" viewBox="0 0 59 59" fill="none" xmlns="http://www.w3.org/2000/svg">
<g id="mdi:github">
<path id="Vector" d="M29.4998 4.91675C26.2715 4.91675 23.0748 5.55261 20.0922 6.78804C17.1096 8.02347 14.3996 9.83427 12.1168 12.117C7.50653 16.7273 4.9165 22.9802 4.9165 29.5001C4.9165 40.3659 11.9719 49.5847 21.7315 52.8543C22.9607 53.0509 23.354 52.2888 23.354 51.6251V47.4705C16.5444 48.9455 15.094 44.1763 15.094 44.1763C13.9632 41.3247 12.3653 40.5626 12.3653 40.5626C10.1282 39.0384 12.5373 39.0876 12.5373 39.0876C14.9957 39.2597 16.2986 41.6197 16.2986 41.6197C18.4373 45.3563 22.0511 44.2501 23.4523 43.6601C23.6736 42.0622 24.3128 40.9805 25.0011 40.3659C19.5436 39.7513 13.8157 37.6372 13.8157 28.2709C13.8157 25.5422 14.7498 23.3542 16.3478 21.6088C16.1019 20.9942 15.2415 18.4376 16.5936 15.1188C16.5936 15.1188 18.6586 14.4551 23.354 17.6263C25.2961 17.0855 27.4103 16.8151 29.4998 16.8151C31.5894 16.8151 33.7036 17.0855 35.6457 17.6263C40.3411 14.4551 42.4061 15.1188 42.4061 15.1188C43.7582 18.4376 42.8978 20.9942 42.6519 21.6088C44.2498 23.3542 45.184 25.5422 45.184 28.2709C45.184 37.6618 39.4315 39.7267 33.9494 40.3413C34.8344 41.1034 35.6457 42.603 35.6457 44.8893V51.6251C35.6457 52.2888 36.039 53.0755 37.2928 52.8543C47.0523 49.5601 54.0832 40.3659 54.0832 29.5001C54.0832 26.2718 53.4473 23.075 52.2119 20.0924C50.9765 17.1099 49.1657 14.3998 46.8829 12.117C44.6001 9.83427 41.8901 8.02347 38.9075 6.78804C35.9249 5.55261 32.7282 4.91675 29.4998 4.91675Z" fill="white"/>
</g>
</svg>
