<svg width="59" height="59" viewBox="0 0 59 59" fill="none" xmlns="http://www.w3.org/2000/svg">
<g id="ri:instagram-fill">
<path id="Vector" d="M32.0272 4.91904C33.8211 4.91216 35.6151 4.93019 37.4085 4.97312L37.8854 4.99033C38.4361 5.01 38.9794 5.03458 39.6357 5.06408C42.2514 5.187 44.0362 5.6 45.6021 6.20721C47.2246 6.83162 48.5915 7.67729 49.9583 9.04412C51.208 10.2723 52.1753 11.758 52.7927 13.3978C53.4 14.9638 53.813 16.751 53.9359 19.3667C53.9654 20.0206 53.99 20.5663 54.0096 21.117L54.0244 21.5939C54.068 23.3865 54.0869 25.1796 54.0809 26.9727L54.0834 28.8067V32.0271C54.0894 33.821 54.0706 35.615 54.0268 37.4084L54.0121 37.8853C53.9924 38.436 53.9678 38.9792 53.9383 39.6356C53.8154 42.2513 53.3975 44.036 52.7927 45.602C52.1773 47.2436 51.2098 48.7305 49.9583 49.9582C48.729 51.2078 47.2426 52.175 45.6021 52.7926C44.0362 53.3998 42.2514 53.8128 39.6357 53.9357C38.9794 53.9652 38.4361 53.9898 37.8854 54.0095L37.4085 54.0242C35.6151 54.0679 33.8211 54.0868 32.0272 54.0808L30.1933 54.0832H26.9753C25.1814 54.0893 23.3875 54.0705 21.594 54.0267L21.1171 54.012C20.5335 53.9908 19.9501 53.9662 19.3668 53.9382C16.7511 53.8153 14.9664 53.3974 13.398 52.7926C11.7575 52.1764 10.2715 51.209 9.04424 49.9582C7.79306 48.7297 6.82492 47.2431 6.20733 45.602C5.60012 44.036 5.18712 42.2513 5.0642 39.6356C5.03682 39.0523 5.01224 38.4688 4.99045 37.8853L4.97816 37.4084C4.93284 35.615 4.91235 33.821 4.9167 32.0271V26.9727C4.90984 25.1796 4.92787 23.3865 4.97079 21.5939L4.98799 21.117C5.00766 20.5663 5.03224 20.0206 5.06174 19.3667C5.18466 16.7485 5.59766 14.9662 6.20487 13.3978C6.82283 11.7572 7.79286 10.2719 9.0467 9.04658C10.2732 7.79468 11.7581 6.82566 13.398 6.20721C14.9664 5.6 16.7487 5.187 19.3668 5.06408L21.1171 4.99033L21.594 4.97804C23.3866 4.93274 25.1797 4.91225 26.9729 4.91658L32.0272 4.91904ZM29.5 17.2107C27.8714 17.1877 26.2544 17.4886 24.7431 18.0959C23.2318 18.7032 21.8562 19.6048 20.6964 20.7484C19.5365 21.8919 18.6155 23.2546 17.9869 24.7572C17.3583 26.2598 17.0345 27.8724 17.0345 29.5011C17.0345 31.1299 17.3583 32.7425 17.9869 34.2451C18.6155 35.7477 19.5365 37.1103 20.6964 38.2539C21.8562 39.3975 23.2318 40.2991 24.7431 40.9064C26.2544 41.5137 27.8714 41.8146 29.5 41.7916C32.76 41.7916 35.8864 40.4966 38.1916 38.1914C40.4967 35.8863 41.7917 32.7599 41.7917 29.4999C41.7917 26.24 40.4967 23.1135 38.1916 20.8084C35.8864 18.5033 32.76 17.2107 29.5 17.2107ZM29.5 22.1274C30.4797 22.1093 31.4531 22.2867 32.3635 22.649C33.2738 23.0114 34.1029 23.5516 34.8021 24.238C35.5014 24.9243 36.0568 25.7432 36.4361 26.6466C36.8153 27.5501 37.0107 28.5201 37.0109 29.4999C37.0111 30.4797 36.816 31.4498 36.437 32.3533C36.0581 33.2569 35.5029 34.076 34.8039 34.7626C34.1048 35.4492 33.276 35.9896 32.3658 36.3523C31.4555 36.715 30.4822 36.8926 29.5025 36.8749C27.5465 36.8749 25.6707 36.0979 24.2876 34.7148C22.9045 33.3317 22.1275 31.4559 22.1275 29.4999C22.1275 27.5439 22.9045 25.6681 24.2876 24.285C25.6707 22.9019 27.5465 22.1249 29.5025 22.1249L29.5 22.1274ZM42.4063 13.5232C41.6132 13.5549 40.8632 13.8923 40.3133 14.4647C39.7634 15.037 39.4563 15.8 39.4563 16.5937C39.4563 17.3874 39.7634 18.1503 40.3133 18.7227C40.8632 19.295 41.6132 19.6324 42.4063 19.6641C43.2213 19.6641 44.0029 19.3404 44.5792 18.7641C45.1555 18.1878 45.4792 17.4062 45.4792 16.5912C45.4792 15.7762 45.1555 14.9946 44.5792 14.4183C44.0029 13.842 43.2213 13.5183 42.4063 13.5183V13.5232Z" fill="white"/>
</g>
</svg>
