<svg width="244" height="76" viewBox="0 0 244 76" fill="none" xmlns="http://www.w3.org/2000/svg">
<rect width="244" height="76" rx="38" fill="#5C48C5"/>
<path d="M66.088 47.256C64.9893 47.256 63.9493 47.176 62.968 47.016C61.9867 46.856 61.1387 46.664 60.424 46.44C59.7093 46.216 59.2027 46.0133 58.904 45.832L59.656 41.864C60.0507 42.0987 60.568 42.3333 61.208 42.568C61.8587 42.792 62.5733 42.984 63.352 43.144C64.1307 43.2933 64.9147 43.368 65.704 43.368C66.9733 43.368 67.9173 43.1707 68.536 42.776C69.1547 42.3813 69.464 41.7467 69.464 40.872C69.464 40.2533 69.2933 39.736 68.952 39.32C68.6107 38.8933 68.072 38.4773 67.336 38.072C66.6107 37.6667 65.6667 37.1867 64.504 36.632C63.512 36.152 62.5787 35.5813 61.704 34.92C60.8293 34.2587 60.12 33.4693 59.576 32.552C59.032 31.6347 58.76 30.5627 58.76 29.336C58.76 28.2267 58.9733 27.272 59.4 26.472C59.8373 25.6613 60.4347 25 61.192 24.488C61.9493 23.9653 62.824 23.5813 63.816 23.336C64.8187 23.0907 65.8907 22.968 67.032 22.968C68.6747 22.968 70.024 23.1227 71.08 23.432C72.136 23.7413 72.872 24.0293 73.288 24.296L72.44 28.104C71.9387 27.7413 71.2453 27.416 70.36 27.128C69.4747 26.8293 68.4613 26.68 67.32 26.68C66.5627 26.68 65.9013 26.7707 65.336 26.952C64.7813 27.1333 64.3493 27.4 64.04 27.752C63.7307 28.0933 63.576 28.5147 63.576 29.016C63.576 29.6133 63.72 30.1253 64.008 30.552C64.3067 30.968 64.776 31.3733 65.416 31.768C66.056 32.152 66.888 32.5947 67.912 33.096C68.84 33.5333 69.6987 33.992 70.488 34.472C71.2773 34.9413 71.9707 35.4587 72.568 36.024C73.1653 36.5893 73.6293 37.2347 73.96 37.96C74.2907 38.6853 74.456 39.5173 74.456 40.456C74.456 41.8853 74.12 43.112 73.448 44.136C72.776 45.1493 71.8107 45.9227 70.552 46.456C69.304 46.9893 67.816 47.256 66.088 47.256ZM78.3108 47V29.192H83.1908V47H78.3108ZM80.5028 26.616C79.7134 26.616 79.0468 26.3707 78.5028 25.88C77.9588 25.3893 77.6868 24.7493 77.6868 23.96C77.6868 23.4267 77.8308 22.9413 78.1188 22.504C78.4174 22.056 78.8014 21.6987 79.2708 21.432C79.7508 21.1653 80.2628 21.032 80.8068 21.032C81.6814 21.032 82.3641 21.2827 82.8548 21.784C83.3561 22.2747 83.6068 22.9093 83.6068 23.688C83.6068 24.4987 83.2974 25.192 82.6788 25.768C82.0708 26.3333 81.3454 26.616 80.5028 26.616ZM95.4293 55.064C92.6239 55.0427 90.5333 54.568 89.1573 53.64C87.7919 52.7227 87.1093 51.416 87.1093 49.72C87.1093 49.0907 87.2586 48.52 87.5573 48.008C87.8559 47.5067 88.2613 47.08 88.7733 46.728C89.2959 46.3653 89.8879 46.088 90.5493 45.896L93.3333 46.152C93.1519 46.3013 92.9386 46.488 92.6933 46.712C92.4586 46.936 92.2506 47.224 92.0693 47.576C91.8879 47.928 91.7973 48.376 91.7973 48.92C91.7973 49.528 91.9093 50.0827 92.1333 50.584C92.3679 51.0853 92.7626 51.4853 93.3173 51.784C93.8826 52.0827 94.6666 52.232 95.6693 52.232C96.5013 52.232 97.2586 52.136 97.9413 51.944C98.6346 51.7627 99.1786 51.4747 99.5733 51.08C99.9786 50.696 100.181 50.1947 100.181 49.576C100.181 49.0427 100.085 48.5733 99.8933 48.168C99.7119 47.7733 99.3439 47.464 98.7893 47.24C98.2453 47.016 97.4399 46.904 96.3733 46.904H93.4133C93.0079 46.904 92.6506 46.8773 92.3413 46.824C92.0319 46.76 91.7279 46.696 91.4293 46.632C91.2266 46.5787 91.0826 46.5253 90.9973 46.472C90.9226 46.408 90.7733 46.3547 90.5493 46.312C89.7493 46.088 89.1786 45.7627 88.8373 45.336C88.4959 44.8987 88.3253 44.36 88.3253 43.72C88.3359 43.304 88.4266 42.872 88.5973 42.424C88.7679 41.9653 89.0613 41.528 89.4773 41.112C89.8933 40.6853 90.4586 40.3227 91.1733 40.024L93.9253 40.52C93.4986 40.68 93.1626 40.936 92.9173 41.288C92.6826 41.6293 92.5653 41.9707 92.5653 42.312C92.5653 42.8347 92.7253 43.1973 93.0453 43.4C93.3759 43.592 93.9413 43.688 94.7413 43.688H97.9573C99.3333 43.688 100.469 43.8213 101.365 44.088C102.261 44.3547 102.965 44.7227 103.477 45.192C103.989 45.6507 104.347 46.1733 104.549 46.76C104.763 47.336 104.869 47.9387 104.869 48.568C104.869 49.6347 104.613 50.5733 104.101 51.384C103.589 52.2053 102.891 52.888 102.005 53.432C101.12 53.976 100.112 54.3867 98.9813 54.664C97.8506 54.9413 96.6666 55.0747 95.4293 55.064ZM95.1733 40.968C93.7013 40.968 92.3946 40.7333 91.2533 40.264C90.1226 39.7947 89.2373 39.1173 88.5973 38.232C87.9573 37.3467 87.6373 36.2907 87.6373 35.064C87.6373 33.7307 87.9519 32.6107 88.5813 31.704C89.2106 30.7973 90.0906 30.1147 91.2213 29.656C92.3626 29.1973 93.6906 28.9627 95.2053 28.952C96.7306 28.9413 98.0693 29.16 99.2213 29.608C100.384 30.056 101.285 30.728 101.925 31.624C102.576 32.5093 102.901 33.608 102.901 34.92C102.901 36.2213 102.603 37.3253 102.005 38.232C101.408 39.128 100.533 39.8107 99.3813 40.28C98.2293 40.7387 96.8266 40.968 95.1733 40.968ZM95.2373 38.232C96.1759 38.232 96.9279 38.0187 97.4933 37.592C98.0693 37.1547 98.3573 36.296 98.3573 35.016C98.3573 33.9813 98.1066 33.2027 97.6053 32.68C97.1146 32.1467 96.3626 31.88 95.3493 31.88C94.7519 31.88 94.2293 31.9707 93.7812 32.152C93.3333 32.3227 92.9813 32.632 92.7253 33.08C92.4799 33.528 92.3573 34.1573 92.3573 34.968C92.3573 35.8533 92.5759 36.6213 93.0133 37.272C93.4506 37.912 94.1919 38.232 95.2373 38.232ZM100.805 32.648L100.037 30.632C100.251 30.344 100.683 30.024 101.333 29.672C101.984 29.3093 102.747 29.128 103.621 29.128H105.701V32.648H100.805ZM108.59 47V29.192H113.022L113.102 31.192C113.507 30.8507 114.024 30.5093 114.654 30.168C115.283 29.816 115.976 29.5227 116.734 29.288C117.502 29.0533 118.275 28.9307 119.054 28.92C120.91 28.8773 122.275 29.3733 123.15 30.408C124.024 31.432 124.462 33.2347 124.462 35.816V47H119.566V36.504C119.566 35.1173 119.384 34.1467 119.022 33.592C118.659 33.0373 117.95 32.7813 116.894 32.824C116.574 32.8347 116.211 32.8933 115.806 33C115.411 33.096 115.006 33.2453 114.59 33.448C114.184 33.64 113.806 33.88 113.454 34.168V47H108.59ZM140.341 47.256C139.103 47.256 138.101 47.0747 137.333 46.712C136.575 46.3387 135.999 45.8107 135.605 45.128C135.21 44.4453 134.943 43.64 134.805 42.712C134.666 41.784 134.597 40.76 134.597 39.64V29.176H139.461V39.704C139.461 40.824 139.557 41.6613 139.749 42.216C139.941 42.7707 140.234 43.1387 140.629 43.32C141.034 43.5013 141.551 43.592 142.181 43.592C142.565 43.592 142.959 43.5387 143.365 43.432C143.77 43.3253 144.143 43.1973 144.485 43.048C144.826 42.888 145.087 42.7387 145.269 42.6V29.176H150.149V47.256H147.045C146.629 47.256 146.303 47.192 146.069 47.064C145.845 46.936 145.733 46.6373 145.733 46.168V44.984L145.829 45.448C145.391 45.7893 144.858 46.0987 144.229 46.376C143.61 46.6427 142.959 46.856 142.277 47.016C141.594 47.176 140.949 47.256 140.341 47.256ZM155.2 54.904V29.176H159.76V31.352L160.08 31.736V45.048L160.032 46.296L160.08 49.176V54.904H155.2ZM162.96 47.256C161.883 47.256 160.998 47.1333 160.304 46.888C159.611 46.632 159.163 46.4293 158.96 46.28L160.08 43.176C160.347 43.432 160.715 43.6187 161.184 43.736C161.664 43.8427 162.208 43.896 162.816 43.896C163.606 43.896 164.304 43.6613 164.912 43.192C165.52 42.7227 166 42.04 166.352 41.144C166.715 40.2373 166.902 39.1333 166.912 37.832C166.923 35.9333 166.614 34.5893 165.984 33.8C165.355 33.0107 164.486 32.616 163.376 32.616C162.683 32.616 162.043 32.7387 161.456 32.984C160.88 33.2293 160.422 33.4853 160.08 33.752L159.488 31.272C159.734 31.0053 160.075 30.6907 160.512 30.328C160.96 29.9653 161.542 29.6453 162.256 29.368C162.971 29.0907 163.862 28.952 164.928 28.952C166.187 28.952 167.355 29.2613 168.432 29.88C169.51 30.488 170.374 31.4213 171.024 32.68C171.675 33.928 172 35.512 172 37.432C172 39.416 171.627 41.144 170.88 42.616C170.134 44.0773 169.078 45.2187 167.712 46.04C166.358 46.8507 164.774 47.256 162.96 47.256Z" fill="white"/>
</svg>
