<svg width="59" height="59" viewBox="0 0 59 59" fill="none" xmlns="http://www.w3.org/2000/svg">
<g id="mdi:youtube">
<path id="Vector" d="M24.5834 36.8751L37.3422 29.5001L24.5834 22.1251V36.8751ZM53.0018 17.6263C53.3213 18.7817 53.5426 20.3305 53.6901 22.2972C53.8622 24.2638 53.9359 25.9601 53.9359 27.4351L54.0834 29.5001C54.0834 34.8838 53.6901 38.8417 53.0018 41.3738C52.3872 43.5863 50.9613 45.0122 48.7488 45.6267C47.5934 45.9463 45.4793 46.1676 42.2343 46.3151C39.0384 46.4872 36.113 46.5609 33.4088 46.5609L29.5001 46.7084C19.1997 46.7084 12.7834 46.3151 10.2513 45.6267C8.03883 45.0122 6.613 43.5863 5.99841 41.3738C5.67883 40.2184 5.45758 38.6697 5.31008 36.703C5.138 34.7363 5.06425 33.0401 5.06425 31.5651L4.91675 29.5001C4.91675 24.1163 5.31008 20.1584 5.99841 17.6263C6.613 15.4138 8.03883 13.988 10.2513 13.3734C11.4067 13.0538 13.5209 12.8326 16.7659 12.6851C19.9617 12.513 22.8872 12.4392 25.5913 12.4392L29.5001 12.2917C39.8005 12.2917 46.2168 12.6851 48.7488 13.3734C50.9613 13.988 52.3872 15.4138 53.0018 17.6263Z" fill="white"/>
</g>
</svg>
